PathFileType	4	(X/Y/Z)	/Users/niels/Desktop/University/Third Semester/Perception and Action/Exam/Gymnastics Motion Tracking/Code for Gym Tracking/Analyzed Data/Backflip/id1_3_pettlep_Sports2D/id1_3_pettlep_Sports2D_px_person00.trc
DataRate	CameraRate	NumFrames	NumMarkers	Units	OrigDataRate	OrigDataStartFrame	OrigNumFrames
59.90876837303599	59.90876837303599	9	22	m	59.90876837303599	173	198
Frame#	Time	Hip			RHip			RKnee			RAnkle			RBigToe			RSmallToe			RHeel			LHip			LKnee			LAnkle			LBigToe			LSmallToe			LHeel			Neck			Head			Nose			RShoulder			RElbow			RWrist			LShoulder			LElbow			LWrist		
		X1	Y1	Z1	X2	Y2	Z2	X3	Y3	Z3	X4	Y4	Z4	X5	Y5	Z5	X6	Y6	Z6	X7	Y7	Z7	X8	Y8	Z8	X9	Y9	Z9	X10	Y10	Z10	X11	Y11	Z11	X12	Y12	Z12	X13	Y13	Z13	X14	Y14	Z14	X15	Y15	Z15	X16	Y16	Z16	X17	Y17	Z17	X18	Y18	Z18	X19	Y19	Z19	X20	Y20	Z20	X21	Y21	Z21	X22	Y22	Z22
173	2.8877241962774955	0.9434271536293697	-0.4820142553308169	0.0	0.9404045966003133	-0.4813364064672108	0.0	0.9484049283887562	-0.5838553393852862	0.0	0.9465066989014191	-0.6813180054749046	0.0	1.0011137412180124	-0.6651585746432778	0.0	0.9937641265535784	-0.6676159630260107	0.0	0.9470300103425214	-0.6789412711599477	0.0	0.949762703864187	-0.4828914605820778	0.0	0.9539901000616636	-0.5833883799052996	0.0	0.9495792471838267	-0.6784871244056405	0.0	0.9986960533876981	-0.6678746845794143	0.0	0.9910917283904228	-0.668990284582418	0.0	0.9496425374552965	-0.6716044468775088	0.0	1.0472044256116448	-0.4195623931635229	0.0	1.1121507650503801	-0.4192467249213146	0.0	1.0831284424210483	-0.44081157483371847	0.0	1.0364331631070454	-0.42147762957789464	0.0	1.056022047114026	-0.4780127205119747	0.0	1.0959518599230265	-0.5078075272015724	0.0	1.0405306897045354	-0.420468351952188	0.0	1.0621309629718687	-0.4763434996425028	0.0	1.0963814870478301	-0.5062672900798857	0.0
174	2.904416243654822	0.9428005799674763	-0.5004967062185056	0.0	0.9403285771355483	-0.5002883386664063	0.0	0.9506596071175167	-0.6017004320111364	0.0	0.9513338716690558	-0.6976827189150376	0.0	1.0140910464405928	-0.6585801152105383	0.0	1.007555095890878	-0.6595819449306338	0.0	0.9576990873436606	-0.6821081730960896	0.0	0.9487058309495026	-0.501142502023058	0.0	0.9558000767388921	-0.6007287390576151	0.0	0.9544082480163816	-0.6948900751699246	0.0	1.0096319638957254	-0.6634447279377512	0.0	1.0012604582540863	-0.6685538582887044	0.0	0.9613164044309227	-0.6719306973651187	0.0	1.0398328349071067	-0.4266945583667942	0.0	1.1031380254544663	-0.42260783326456974	0.0	1.0771767089297926	-0.4451968220276375	0.0	1.030121647147191	-0.42961270973403054	0.0	1.0596043909019282	-0.4798992129696221	0.0	1.104820056572176	-0.5016265562948491	0.0	1.033328786180194	-0.4276408493587116	0.0	1.0641022700724503	-0.47749057076919543	0.0	1.103919142690231	-0.5000734925309731	0.0
175	2.921108291032149	0.9426929121082074	-0.51880294542795	0.0	0.9406740786888177	-0.5190742151310986	0.0	0.952746452098255	-0.6192646831961427	0.0	0.955080435123911	-0.713123166271979	0.0	1.0270675335104	-0.6464974282197984	0.0	1.0215470695825106	-0.6452555912989577	0.0	0.9686606548574571	-0.680255829179111	0.0	0.9481409703072113	-0.5193560561585229	0.0	0.9576385019247118	-0.6178036659309638	0.0	0.9583417791776465	-0.7104642134478416	0.0	1.020757694168192	-0.653665329801773	0.0	1.0116214916477388	-0.6638744184599397	0.0	0.9735193382790136	-0.6665072534873667	0.0	1.0322820110160582	-0.43455419810180856	0.0	1.0935323513860715	-0.4265856444271738	0.0	1.0708396039120804	-0.45020385030312565	0.0	1.023509985407925	-0.43829034382813237	0.0	1.0616951864415423	-0.48076430118669794	0.0	1.1109157504210099	-0.4938737336939682	0.0	1.0260111593490178	-0.4355923903105846	0.0	1.0649088368117776	-0.4779089590040381	0.0	1.109005295373497	-0.49252020254522877	0.0
176	2.9378003384094753	0.9430346282649372	-0.5366451491439985	0.0	0.9413275971094271	-0.5373872650073491	0.0	0.9546211599255838	-0.6362441089730373	0.0	0.9579316305578197	-0.7275323030378217	0.0	1.0399243966809917	-0.6291352319167516	0.0	1.035582685059396	-0.6248464357732473	0.0	0.9801080694379155	-0.6732462675970885	0.0	0.9480478215856564	-0.5372317448776506	0.0	0.9594829760357058	-0.6343065393369969	0.0	0.9615670397681769	-0.7251002512986445	0.0	1.032130066743641	-0.6385571583323096	0.0	1.0222479801391904	-0.6550199139489731	0.0	0.9863433364952863	-0.6551737712488456	0.0	1.0246965225256046	-0.4429722819965836	0.0	1.0835373284741756	-0.43096707803449164	0.0	1.064216551268825	-0.4556792553828049	0.0	1.0167028117816992	-0.44731349686999605	0.0	1.0621535061963217	-0.48078097770078343	0.0	1.1140137986627636	-0.4849840852674293	0.0	1.018760103210582	-0.44417367294167764	0.0	1.0644938951249578	-0.47773853283062123	0.0	1.1115201556023278	-0.48404887307448036	0.0
177	2.9544923857868017	0.9437199116743542	-0.5537086548436322	0.0	0.9421650305791043	-0.5548882896049773	0.0	0.9562856251985152	-0.6522976440705158	0.0	0.9601187055435463	-0.7407661753096463	0.0	1.0522003049708208	-0.6074706127700217	0.0	1.0491384446743302	-0.5993961458808215	0.0	0.9920950582126593	-0.6613403006725815	0.0	0.9483638786125576	-0.5544225285734484	0.0	0.9613212851071251	-0.6499019081887036	0.0	0.9642919286819304	-0.7386392781269158	0.0	1.0435450730943838	-0.6187693289157907	0.0	1.0329474396067737	-0.6425683051264759	0.0	0.9996607120920112	-0.6382799009400686	0.0	1.0172170807103822	-0.45172833635017506	0.0	1.0733726609812395	-0.4355219012915485	0.0	1.057406045895986	-0.46142611189222155	0.0	1.0098105448664396	-0.45646752662213086	0.0	1.0609452548631806	-0.4801297228913756	0.0	1.1140698845174881	-0.4754069618582199	0.0	1.011746501497009	-0.45317056787790994	0.0	1.0628530900658475	-0.4771347108756875	0.0	1.1114684170867304	-0.47509678712719117	0.0
178	2.971184433164128	0.9446095893557421	-0.5696624672005789	0.0	0.9430527303334163	-0.5712172150949956	0.0	0.9577855730498714	-0.6670764929476898	0.0	0.961867927372408	-0.7526738826360456	0.0	1.0630443960303246	-0.583514652319116	0.0	1.0612652881838365	-0.5710786947668253	0.0	1.0044018773389165	-0.6454242528297555	0.0	0.9489839163824106	-0.5705514128484482	0.0	0.963150272258809	-0.6642557732833647	0.0	0.966697593502967	-0.7509013001215575	0.0	1.0544837997679362	-0.595879333913576	0.0	1.0432131315334785	-0.6278464747884819	0.0	1.012987853440811	-0.6170149722695708	0.0	1.0099734795804387	-0.46055257467386046	0.0	1.063273892126658	-0.44002530323219236	0.0	1.0505126164196943	-0.4672102098394991	0.0	1.002942525894342	-0.4655154234457936	0.0	1.0581448123357864	-0.47896950491098933	0.0	1.1112245404934036	-0.465579313098602	0.0	1.005121896574934	-0.46230678366235617	0.0	1.060047949280654	-0.4762488732957323	0.0	1.108988891299042	-0.4660721318987507	0.0
179	2.987876480541455	0.9455437452575778	-0.5841700591034197	0.0	0.943848500800509	-0.586008402017876	0.0	0.9591988383216703	-0.6802669193757849	0.0	0.9633558845479361	-0.7631393959369704	0.0	1.0713960919297252	-0.5601732768702152	0.0	1.0707647333508248	-0.5430726237845536	0.0	1.0163955143855767	-0.6272811060314419	0.0	0.9497767832326814	-0.5852311040895702	0.0	0.9649764289253315	-0.677074883709602	0.0	0.9688965397872641	-0.7617337589071016	0.0	1.0641577756579266	-0.5724331305663595	0.0	1.0522830252404989	-0.6129048929654084	0.0	1.0253980934198816	-0.593676306971825	0.0	1.0030726011725783	-0.4691359418268319	0.0	1.053489714979496	-0.44427518872444177	0.0	1.0436514781416526	-0.47277448244462233	0.0	0.9961972694599683	-0.4741851950393108	0.0	1.0539204286182597	-0.4774117861424522	0.0	1.105795609224142	-0.4558856834357362	0.0	0.9990072587314165	-0.47125112947233194	0.0	1.0562180101083056	-0.4751967560181193	0.0	1.1043601557471483	-0.4573203240250006	0.0
180	3.0045685279187815	0.9463566551825624	-0.596901711903563	0.0	0.9444102391983504	-0.598907360790672	0.0	0.9606198423853026	-0.6916113021328717	0.0	0.9646852785364801	-0.7720883614235264	0.0	1.0764257179105465	-0.5404752276958138	0.0	1.0766469365535922	-0.5188146705436483	0.0	1.0270123282375352	-0.6096352992148818	0.0	0.9505999834874557	-0.5980838501561321	0.0	0.966810269427878	-0.6881227925731281	0.0	0.9709076321102558	-0.7710301625180562	0.0	1.0717107493554445	-0.5514617321399751	0.0	1.059343890672553	-0.5999653743300815	0.0	1.0356524702405514	-0.5714553510934904	0.0	0.996589040041931	-0.47714580954121166	0.0	1.0442719430526477	-0.44809350845540397	0.0	1.036944707040355	-0.4778509163645968	0.0	0.9896579217677639	-0.48216750587059465	0.0	1.0485103267836438	-0.4755039506682192	0.0	1.0982478773337228	-0.44661288270979926	0.0	0.9934812976418466	-0.4796315058763916	0.0	1.051573557371716	-0.4740250245990008	0.0	1.097985432553326	-0.449083111472462	0.0
181	3.021260575296108	0.9468889532862497	-0.6075507261872397	0.0	0.9446117171141082	-0.6095943682920539	0.0	0.9621440827801488	-0.7008941597398485	0.0	0.9658714777312798	-0.7794432709733712	0.0	1.077879244210839	-0.5266666521532846	0.0	1.0785064742348547	-0.5011432016129899	0.0	1.0350589066591895	-0.595531917343919	0.0	0.9513028013537207	-0.6087679616232213	0.0	0.9686551365149817	-0.6972051935092038	0.0	0.9726417831786034	-0.778692213071202	0.0	1.0764995437220235	-0.535670734767207	0.0	1.0638054048123684	-0.5905387470104166	0.0	1.0426024475200566	-0.5536256608578515	0.0	0.9905651151278002	-0.48424143298216454	0.0	1.0358458177464829	-0.4513115585199845	0.0	1.0305086015670377	-0.48216931990216433	0.0	0.983394792997138	-0.48913259171618123	0.0	1.042200092856571	-0.47322964411053964	0.0	1.0891414516046558	-0.4379271638005037	0.0	0.9885721690177431	-0.4870628203562182	0.0	1.046367181985196	-0.4727007675422743	0.0	1.0903535645312055	-0.4414784580142927	0.0
